<?xml version="1.0" encoding="UTF-8"?>
<svg width="617px" height="85px" viewBox="0 0 617 85" version="1.1" xmlns="http://www.w3.org/2000/svg" xmlns:xlink="http://www.w3.org/1999/xlink">
    <!-- Generator: Sketch 51.2 (57519) - http://www.bohemiancoding.com/sketch -->
    <title>bcs-logo-2</title>
    <desc>Created with Sketch.</desc>
    <defs></defs>
    <g id="Welcome" stroke="none" stroke-width="1" fill="none" fill-rule="evenodd">
        <g id="bcs-logo-2" fill="#20394E">
            <g id="logo-mark">
                <path d="M0.29991625,84.806678 C1.93284951,84.5613141 3.50443411,83.810014 4.7616703,82.5527778 L31.5527778,55.7616703 C31.5770612,55.737387 31.6011557,55.7129864 31.6250616,55.6884703 C33.0914487,54.2383274 34,52.2252655 34,50 L34,30.3690226 L35.9072207,28.8312292 C39.9013866,25.6107302 45.9646509,23 49.4499006,23 L92.0464686,23 C95.5317183,23 95.7420521,25.6107302 92.5162625,28.8312292 L61.8520162,59.4451824 C60.2273474,61.0671865 57.9184929,62.5345147 55.4968666,63.5915291 C55.4700597,63.6034424 39.9793154,70.1306063 9.02463353,83.1730208 C5.61816339,84.5490777 2.41745874,85.0936301 0.29991625,84.806678 Z" id="Combined-Shape" opacity="0.0893779115" transform="translate(47.552190, 53.940474) scale(-1, 1) translate(-47.552190, -53.940474) "></path>
                <path d="M101.218731,29.0472155 L83.5388742,11.3673583 C81.6998706,9.52835463 78.7182565,9.52835463 76.8792528,11.3673583 C75.0402491,13.206362 75.0402491,16.1879761 76.8792528,18.0269798 L97.8254772,38.9732043 C97.8360628,38.9837898 97.8466862,38.9943144 97.857347,39.0047781 C97.8678106,39.0154389 97.8783352,39.0260622 97.8889207,39.0366478 C99.7279244,40.8756515 102.709539,40.8756515 104.548542,39.0366478 L125.494767,18.0904233 C127.33377,16.2514196 127.33377,13.2698055 125.494767,11.4308018 C123.655763,9.59179811 120.674149,9.59179811 118.835145,11.4308018 L101.218731,29.0472155 Z M101.218731,55.975787 L83.5388742,38.2959298 C81.6998706,36.4569261 78.7182565,36.4569261 76.8792528,38.2959298 C75.0402491,40.1349334 75.0402491,43.1165475 76.8792528,44.9555512 L97.8254772,65.9017757 C97.8360628,65.9123612 97.8466862,65.9228858 97.857347,65.9333495 C97.8678106,65.9440103 97.8783352,65.9546337 97.8889207,65.9652192 C99.7279244,67.8042229 102.709539,67.8042229 104.548542,65.9652192 L125.494767,45.0189947 C127.33377,43.179991 127.33377,40.1983769 125.494767,38.3593732 C123.655763,36.5203695 120.674149,36.5203695 118.835145,38.3593732 L101.218731,55.975787 Z M131.7947,52.4131137 C131.772502,52.4358786 131.750128,52.4585363 131.727579,52.4810851 L106.850122,77.3585421 C103.949085,80.2595797 99.2455736,80.2595797 96.344536,77.3585421 L72.2802882,53.2942943 C70.3014102,51.9597726 69,49.697348 69,47.1309627 L69,8.1309627 C69,4.02827598 72.3258847,0.702391268 76.4285714,0.702391268 L126.571429,0.702391268 C130.674115,0.702391268 134,4.02827598 134,8.1309627 L134,47.1309627 C134,49.1972807 133.156345,51.0665525 131.7947,52.4131137 Z" id="Combined-Shape"></path>
            </g>
            <path d="M167.896,44.08 L175.24,44.08 C176.776008,44.08 177.867997,43.7560032 178.516,43.108 C179.164003,42.4599968 179.488,41.3680077 179.488,39.832 L179.488,27.304 C179.488,25.7679923 179.164003,24.6760032 178.516,24.028 C177.867997,23.3799968 176.776008,23.056 175.24,23.056 L172.072,23.056 C168.759983,23.056 167.104,24.8799818 167.104,28.528 L167.104,43.288 C167.104,43.8160026 167.367997,44.08 167.896,44.08 Z M157.96,50.488 L157.96,2.896 C157.96,1.88799496 158.463995,1.384 159.472,1.384 L165.592,1.384 C166.600005,1.384 167.104,1.88799496 167.104,2.896 L167.104,19.096 L167.392,19.096 C167.920003,17.7999935 168.855993,16.8160034 170.2,16.144 C171.544007,15.4719966 172.959993,15.136 174.448,15.136 L176.752,15.136 C180.544019,15.136 183.47199,16.1439899 185.536,18.16 C187.60001,20.1760101 188.632,23.079981 188.632,26.872 L188.632,40.264 C188.632,44.056019 187.60001,46.9599899 185.536,48.976 C183.47199,50.9920101 180.544019,52 176.752,52 L159.472,52 C158.463995,52 157.96,51.496005 157.96,50.488 Z M215.985858,52 L209.577858,52 C205.785839,52 202.857868,50.9920101 200.793858,48.976 C198.729848,46.9599899 197.697858,44.056019 197.697858,40.264 L197.697858,27.016 C197.697858,23.223981 198.729848,20.3200101 200.793858,18.304 C202.857868,16.2879899 205.785839,15.28 209.577858,15.28 L215.985858,15.28 C219.729877,15.28 222.645848,16.2999898 224.733858,18.34 C226.821869,20.3800102 227.865858,23.2719813 227.865858,27.016 L227.865858,40.264 C227.865858,44.0080187 226.821869,46.8999898 224.733858,48.94 C222.645848,50.9800102 219.729877,52 215.985858,52 Z M210.945858,44.152 L214.617858,44.152 C216.153866,44.152 217.245855,43.8400031 217.893858,43.216 C218.541861,42.5919969 218.865858,41.5120077 218.865858,39.976 L218.865858,27.304 C218.865858,25.7679923 218.541861,24.6880031 217.893858,24.064 C217.245855,23.4399969 216.153866,23.128 214.617858,23.128 L210.945858,23.128 C209.40985,23.128 208.329861,23.4399969 207.705858,24.064 C207.081855,24.6880031 206.769858,25.7679923 206.769858,27.304 L206.769858,39.976 C206.769858,41.5120077 207.081855,42.5919969 207.705858,43.216 C208.329861,43.8400031 209.40985,44.152 210.945858,44.152 Z M255.219716,52 L248.811716,52 C245.019697,52 242.091727,50.9920101 240.027716,48.976 C237.963706,46.9599899 236.931716,44.056019 236.931716,40.264 L236.931716,27.016 C236.931716,23.223981 237.963706,20.3200101 240.027716,18.304 C242.091727,16.2879899 245.019697,15.28 248.811716,15.28 L255.219716,15.28 C258.963735,15.28 261.879706,16.2999898 263.967716,18.34 C266.055727,20.3800102 267.099716,23.2719813 267.099716,27.016 L267.099716,40.264 C267.099716,44.0080187 266.055727,46.8999898 263.967716,48.94 C261.879706,50.9800102 258.963735,52 255.219716,52 Z M250.179716,44.152 L253.851716,44.152 C255.387724,44.152 256.479713,43.8400031 257.127716,43.216 C257.775719,42.5919969 258.099716,41.5120077 258.099716,39.976 L258.099716,27.304 C258.099716,25.7679923 257.775719,24.6880031 257.127716,24.064 C256.479713,23.4399969 255.387724,23.128 253.851716,23.128 L250.179716,23.128 C248.643709,23.128 247.563719,23.4399969 246.939716,24.064 C246.315713,24.6880031 246.003716,25.7679923 246.003716,27.304 L246.003716,39.976 C246.003716,41.5120077 246.315713,42.5919969 246.939716,43.216 C247.563719,43.8400031 248.643709,44.152 250.179716,44.152 Z M277.677574,23.2 L274.797574,23.2 C274.221571,23.2 273.825575,23.104001 273.609574,22.912 C273.393573,22.719999 273.285574,22.3360029 273.285574,21.76 L273.285574,16.792 C273.285574,15.783995 273.789569,15.28 274.797574,15.28 L277.677574,15.28 C278.205577,15.28 278.469574,15.0160026 278.469574,14.488 L278.469574,7.648 C278.469574,6.63999496 278.997569,6.136 280.053574,6.136 L286.101574,6.136 C287.109579,6.136 287.613574,6.63999496 287.613574,7.648 L287.613574,14.488 C287.613574,15.0160026 287.901571,15.28 288.477574,15.28 L294.093574,15.28 C295.101579,15.28 295.605574,15.783995 295.605574,16.792 L295.605574,21.76 C295.605574,22.2880026 295.497575,22.6599989 295.281574,22.876 C295.065573,23.0920011 294.669577,23.2 294.093574,23.2 L288.477574,23.2 C287.901571,23.2 287.613574,23.4639974 287.613574,23.992 L287.613574,39.904 C287.613574,41.3920074 287.949571,42.4599968 288.621574,43.108 C289.293578,43.7560032 290.397567,44.08 291.933574,44.08 L294.813574,44.08 C295.821579,44.08 296.325574,44.583995 296.325574,45.592 L296.325574,50.56 C296.325574,51.0880026 296.217575,51.4599989 296.001574,51.676 C295.785573,51.8920011 295.389577,52 294.813574,52 L290.421574,52 C286.629555,52 283.689585,50.9920101 281.601574,48.976 C279.513564,46.9599899 278.469574,44.0800187 278.469574,40.336 L278.469574,23.992 C278.469574,23.4639974 278.205577,23.2 277.677574,23.2 Z M328.287432,45.592 L328.287432,50.56 C328.287432,51.0880026 328.179434,51.4599989 327.963432,51.676 C327.747431,51.8920011 327.351435,52 326.775432,52 L316.047432,52 C312.255413,52 309.327443,50.9920101 307.263432,48.976 C305.199422,46.9599899 304.167432,44.056019 304.167432,40.264 L304.167432,27.016 C304.167432,23.223981 305.199422,20.3200101 307.263432,18.304 C309.327443,16.2879899 312.255413,15.28 316.047432,15.28 L326.775432,15.28 C327.783437,15.28 328.287432,15.783995 328.287432,16.792 L328.287432,21.76 C328.287432,22.2880026 328.179434,22.6599989 327.963432,22.876 C327.747431,23.0920011 327.351435,23.2 326.775432,23.2 L317.487432,23.2 C315.999425,23.2 314.931436,23.5239968 314.283432,24.172 C313.635429,24.8200032 313.311432,25.9119923 313.311432,27.448 L313.311432,39.832 C313.311432,41.3680077 313.635429,42.4599968 314.283432,43.108 C314.931436,43.7560032 315.999425,44.08 317.487432,44.08 L326.775432,44.08 C327.783437,44.08 328.287432,44.583995 328.287432,45.592 Z M349.953291,52 L348.225291,52 C344.433272,52 341.505301,50.9920101 339.441291,48.976 C337.37728,46.9599899 336.345291,44.056019 336.345291,40.264 L336.345291,27.016 C336.345291,23.223981 337.37728,20.3200101 339.441291,18.304 C341.505301,16.2879899 344.433272,15.28 348.225291,15.28 L364.857291,15.28 C365.913296,15.28 366.441291,15.783995 366.441291,16.792 L366.441291,50.488 C366.441291,51.496005 365.913296,52 364.857291,52 L358.809291,52 C357.801285,52 357.297291,51.496005 357.297291,50.488 L357.297291,48.112 L357.009291,48.112 C356.481288,49.4080065 355.545297,50.3799968 354.201291,51.028 C352.857284,51.6760032 351.441298,52 349.953291,52 Z M357.297291,38.608 L357.297291,23.992 C357.297291,23.4639974 357.009293,23.2 356.433291,23.2 L349.665291,23.2 C348.129283,23.2 347.049294,23.5239968 346.425291,24.172 C345.801287,24.8200032 345.489291,25.9119923 345.489291,27.448 L345.489291,39.832 C345.489291,41.3680077 345.801287,42.4599968 346.425291,43.108 C347.049294,43.7560032 348.129283,44.08 349.665291,44.08 L352.329291,44.08 C355.641307,44.08 357.297291,42.2560182 357.297291,38.608 Z M384.579149,52 L378.459149,52 C377.451144,52 376.947149,51.496005 376.947149,50.488 L376.947149,16.792 C376.947149,15.783995 377.451144,15.28 378.459149,15.28 L384.579149,15.28 C385.587154,15.28 386.091149,15.783995 386.091149,16.792 L386.091149,19.168 L386.379149,19.168 C386.955152,18.0159942 387.927142,17.0800036 389.295149,16.36 C390.663155,15.6399964 392.23514,15.28 394.011149,15.28 L396.027149,15.28 C400.20317,15.28 403.20314,16.8159846 405.027149,19.888 C406.659157,16.8159846 409.467129,15.28 413.451149,15.28 L415.539149,15.28 C419.235167,15.28 422.031139,16.2879899 423.927149,18.304 C425.823158,20.3200101 426.771149,23.223981 426.771149,27.016 L426.771149,50.488 C426.771149,51.496005 426.267154,52 425.259149,52 L419.139149,52 C418.131144,52 417.627149,51.496005 417.627149,50.488 L417.627149,27.448 C417.627149,25.9119923 417.315152,24.8200032 416.691149,24.172 C416.067146,23.5239968 414.987156,23.2 413.451149,23.2 L411.651149,23.2 C408.339132,23.2 406.683149,25.0479815 406.683149,28.744 L406.683149,50.488 C406.683149,51.496005 406.155154,52 405.099149,52 L399.051149,52 C398.043144,52 397.539149,51.496005 397.539149,50.488 L397.539149,27.448 C397.539149,25.9119923 397.215152,24.8200032 396.567149,24.172 C395.919145,23.5239968 394.827156,23.2 393.291149,23.2 L391.059149,23.2 C387.747132,23.2 386.091149,25.0239818 386.091149,28.672 L386.091149,50.488 C386.091149,51.496005 385.587154,52 384.579149,52 Z M444.621007,61.792 L438.501007,61.792 C437.493002,61.792 436.989007,61.3120048 436.989007,60.352 L436.989007,16.792 C436.989007,15.783995 437.493002,15.28 438.501007,15.28 L444.621007,15.28 C445.629012,15.28 446.133007,15.783995 446.133007,16.792 L446.133007,19.168 L446.421007,19.168 C446.949009,17.8719935 447.885,16.9000032 449.229007,16.252 C450.573013,15.6039968 451.988999,15.28 453.477007,15.28 L456.429007,15.28 C460.125025,15.28 462.920997,16.2879899 464.817007,18.304 C466.713016,20.3200101 467.661007,23.223981 467.661007,27.016 L467.661007,40.264 C467.661007,44.056019 466.713016,46.9599899 464.817007,48.976 C462.920997,50.9920101 460.125025,52 456.429007,52 L453.477007,52 C451.988999,52 450.573013,51.6760032 449.229007,51.028 C447.885,50.3799968 446.949009,49.4080065 446.421007,48.112 L446.133007,48.112 L446.133007,60.352 C446.133007,61.3120048 445.629012,61.792 444.621007,61.792 Z M451.101007,44.08 C447.78899,44.08 446.133007,42.2560182 446.133007,38.608 L446.133007,28.672 C446.133007,25.0239818 447.78899,23.2 451.101007,23.2 L454.269007,23.2 C455.805014,23.2 456.897004,23.5239968 457.545007,24.172 C458.19301,24.8200032 458.517007,25.9119923 458.517007,27.448 L458.517007,39.832 C458.517007,41.3680077 458.19301,42.4599968 457.545007,43.108 C456.897004,43.7560032 455.805014,44.08 454.269007,44.08 L451.101007,44.08 Z M499.615007,52 L486.799007,52 C486.127003,52 485.791007,51.6640034 485.791007,50.992 L485.791007,48.472 C485.791007,47.8479969 486.127003,47.536 486.799007,47.536 L498.895007,47.536 C502.639025,47.536 504.511007,46.1440139 504.511007,43.36 L504.511007,41.992 C504.511007,39.4479873 503.287019,37.6960048 500.839007,36.736 L492.343007,33.136 C489.894995,32.127995 488.143012,30.9400068 487.087007,29.572 C486.031001,28.2039932 485.503007,26.3920113 485.503007,24.136 C485.503007,18.2319705 488.742974,15.28 495.223007,15.28 L507.031007,15.28 C507.70301,15.28 508.039007,15.6159966 508.039007,16.288 L508.039007,18.808 C508.039007,19.4320031 507.70301,19.744 507.031007,19.744 L496.159007,19.744 C494.430998,19.744 493.123011,20.1039964 492.235007,20.824 C491.347002,21.5440036 490.903007,22.3839952 490.903007,23.344 L490.903007,24.568 C490.903007,26.5840101 492.270993,28.1199947 495.007007,29.176 L503.503007,32.992 C505.999019,33.9520048 507.691002,35.2239921 508.579007,36.808 C509.467011,38.3920079 509.911007,40.5759861 509.911007,43.36 C509.911007,49.1200288 506.479041,52 499.615007,52 Z M525.168865,62.512 L521.928865,62.512 C521.256861,62.512 520.920865,62.1760034 520.920865,61.504 L520.920865,16.288 C520.920865,15.6159966 521.256861,15.28 521.928865,15.28 L525.168865,15.28 C525.840868,15.28 526.176865,15.6159966 526.176865,16.288 L526.176865,19.096 L526.464865,19.096 C527.664871,16.5519873 530.112846,15.28 533.808865,15.28 L538.128865,15.28 C541.392881,15.28 543.924856,16.2159906 545.724865,18.088 C547.524874,19.9600094 548.424865,22.5759832 548.424865,25.936 L548.424865,41.344 C548.424865,44.7040168 547.524874,47.3199906 545.724865,49.192 C543.924856,51.0640094 541.392881,52 538.128865,52 L533.808865,52 C530.112846,52 527.664871,50.7280127 526.464865,48.184 L526.176865,48.184 L526.176865,61.504 C526.176865,62.1760034 525.840868,62.512 525.168865,62.512 Z M532.872865,47.392 L537.120865,47.392 C541.200885,47.392 543.240865,45.3040209 543.240865,41.128 L543.240865,26.152 C543.240865,21.9759791 541.200885,19.888 537.120865,19.888 L532.872865,19.888 C530.712854,19.888 529.056871,20.4639942 527.904865,21.616 C526.752859,22.7680058 526.176865,24.3999894 526.176865,26.512 L526.176865,40.768 C526.176865,42.8800106 526.752859,44.5119942 527.904865,45.664 C529.056871,46.8160058 530.712854,47.392 532.872865,47.392 Z M576.354723,52 L570.162723,52 C566.850706,52 564.246732,51.0640094 562.350723,49.192 C560.454713,47.3199906 559.506723,44.7040168 559.506723,41.344 L559.506723,25.936 C559.506723,22.5759832 560.454713,19.9600094 562.350723,18.088 C564.246732,16.2159906 566.850706,15.28 570.162723,15.28 L576.354723,15.28 C579.66674,15.28 582.270713,16.2159906 584.166723,18.088 C586.062732,19.9600094 587.010723,22.5759832 587.010723,25.936 L587.010723,41.344 C587.010723,44.7040168 586.062732,47.3199906 584.166723,49.192 C582.270713,51.0640094 579.66674,52 576.354723,52 Z M570.738723,47.392 L575.778723,47.392 C579.810743,47.392 581.826723,45.3280206 581.826723,41.2 L581.826723,26.08 C581.826723,21.9519794 579.810743,19.888 575.778723,19.888 L570.738723,19.888 C566.706703,19.888 564.690723,21.9519794 564.690723,26.08 L564.690723,41.2 C564.690723,45.3280206 566.706703,47.392 570.738723,47.392 Z M600.180581,19.888 L596.220581,19.888 C595.548578,19.888 595.212581,19.5760031 595.212581,18.952 L595.212581,16.288 C595.212581,15.6159966 595.548578,15.28 596.220581,15.28 L600.180581,15.28 C600.660583,15.28 600.900581,15.0640022 600.900581,14.632 L600.900581,8.44 C600.900581,7.76799664 601.236578,7.432 601.908581,7.432 L605.148581,7.432 C605.772584,7.432 606.084581,7.76799664 606.084581,8.44 L606.084581,14.632 C606.084581,15.0640022 606.348578,15.28 606.876581,15.28 L614.508581,15.28 C615.228585,15.28 615.588581,15.6159966 615.588581,16.288 L615.588581,18.952 C615.588581,19.5760031 615.228585,19.888 614.508581,19.888 L606.876581,19.888 C606.348578,19.888 606.084581,20.1039978 606.084581,20.536 L606.084581,41.272 C606.084581,45.3520204 608.19656,47.392 612.420581,47.392 L615.228581,47.392 C615.948585,47.392 616.308581,47.7279966 616.308581,48.4 L616.308581,51.064 C616.308581,51.6880031 615.948585,52 615.228581,52 L611.772581,52 C608.460565,52 605.820591,51.0760092 603.852581,49.228 C601.884571,47.3799908 600.900581,44.8000166 600.900581,41.488 L600.900581,20.536 C600.900581,20.1039978 600.660583,19.888 600.180581,19.888 Z" id="bootcampspot"></path>
        </g>
    </g>
</svg>